<svg width="16" height="16" viewBox="0 0 16 16" fill="none" xmlns="http://www.w3.org/2000/svg">
<g clip-path="url(#clip0_833_121)">
<path d="M12 0H4C1.79086 0 0 1.79086 0 4V12C0 14.2091 1.79086 16 4 16H12C14.2091 16 16 14.2091 16 12V4C16 1.79086 14.2091 0 12 0Z" fill="black"/>
<path d="M4.37109 13V4.87988H6.08008V11.6816H7.10059V13H4.37109Z" fill="white"/>
<path d="M9.58789 9.28125V7.74805C9.58789 7.57878 9.56348 7.46973 9.51465 7.4209C9.46908 7.37207 9.37142 7.34766 9.22168 7.34766H9.08984V9.68164C9.10612 9.68164 9.13216 9.68327 9.16797 9.68652C9.20378 9.68978 9.22819 9.69141 9.24121 9.69141C9.36491 9.69141 9.4528 9.67188 9.50488 9.63281C9.56022 9.59049 9.58789 9.52214 9.58789 9.42773V9.28125ZM9.58789 5.49219V4.58887C9.58789 4.4196 9.56348 4.31055 9.51465 4.26172C9.46908 4.21289 9.37142 4.18848 9.22168 4.18848H9.08984V5.8877C9.10612 5.8877 9.13216 5.89095 9.16797 5.89746C9.20378 5.90072 9.22819 5.90234 9.24121 5.90234C9.36491 5.90234 9.4528 5.88118 9.50488 5.83887C9.56022 5.79655 9.58789 5.72982 9.58789 5.63867V5.49219ZM7.37109 11V2.87988H9.3291C10.182 2.87988 10.7256 2.97754 10.96 3.17285C11.1943 3.36491 11.3115 3.82715 11.3115 4.55957V5.40918C11.3115 5.78353 11.2497 6.06836 11.126 6.26367C11.0055 6.45573 10.8102 6.58105 10.54 6.63965C10.8298 6.75033 11.0299 6.90169 11.1406 7.09375C11.2546 7.28581 11.3115 7.58529 11.3115 7.99219V9.31055C11.3115 10.0495 11.1927 10.5166 10.9551 10.7119C10.7207 10.904 10.182 11 9.33887 11H7.37109Z" fill="white"/>
</g>
<defs>
<clipPath id="clip0_833_121">
<rect width="16" height="16" fill="white"/>
</clipPath>
</defs>
</svg>